<?xml version="1.0" encoding="iso-8859-1"?>
<!-- Uploaded to: SVG Repo, www.svgrepo.com, Generator: SVG Repo Mixer Tools -->
<svg fill="#000000" height="800px" width="800px" version="1.1" id="Layer_1" xmlns="http://www.w3.org/2000/svg" xmlns:xlink="http://www.w3.org/1999/xlink" 
	 viewBox="0 0 512 512" xml:space="preserve">
<g>
	<g>
		<polygon points="76.077,0 76.077,131.296 91.285,131.296 91.285,15.208 420.715,15.208 420.715,496.792 91.285,496.792 
			91.285,151.575 76.077,151.575 76.077,512 435.923,512 435.923,0 		"/>
	</g>
</g>
<g>
	<g>
		<path d="M256,65.934c-37.635,0-68.252,30.619-68.252,68.253c0,37.635,30.618,68.252,68.252,68.252s68.252-30.619,68.252-68.253
			S293.634,65.934,256,65.934z M256,187.231c-29.249,0-53.044-23.795-53.044-53.044S226.751,81.142,256,81.142
			s53.044,23.795,53.044,53.044S285.249,187.231,256,187.231z"/>
	</g>
</g>
<g>
	<g>
		<path d="M256,228.221c-60.06,0-108.922,48.862-108.922,108.922c0,60.06,48.862,108.922,108.922,108.922
			c60.059,0,108.922-48.862,108.922-108.922C364.922,277.083,316.059,228.221,256,228.221z M256,430.859
			c-51.674,0-93.714-42.04-93.714-93.714S204.325,243.43,256,243.43s93.714,42.039,93.714,93.714
			C349.714,388.819,307.674,430.859,256,430.859z"/>
	</g>
</g>
<g>
	<g>
		<path d="M256,299.431c-20.795,0-37.713,16.917-37.713,37.713c0,20.794,16.917,37.713,37.713,37.713s37.713-16.917,37.713-37.713
			C293.713,316.348,276.795,299.431,256,299.431z M256,359.648c-12.409,0-22.505-10.095-22.505-22.505
			c0-12.41,10.095-22.505,22.505-22.505c12.409,0,22.505,10.095,22.505,22.505C278.505,349.552,268.409,359.648,256,359.648z"/>
	</g>
</g>
</svg>