<?xml version="1.0" encoding="iso-8859-1"?>
<!-- Uploaded to: SVG Repo, www.svgrepo.com, Generator: SVG Repo Mixer Tools -->
<svg fill="#000000" height="800px" width="800px" version="1.1" id="Layer_1" xmlns="http://www.w3.org/2000/svg" xmlns:xlink="http://www.w3.org/1999/xlink" 
	 viewBox="0 0 512 512" xml:space="preserve">
<g>
	<g>
		<g>
			<path d="M459.755,0H52.245c-5.771,0-10.449,4.678-10.449,10.449v491.102c0,5.771,4.678,10.449,10.449,10.449h407.51
				c5.771,0,10.449-4.678,10.449-10.449V10.449C470.204,4.678,465.526,0,459.755,0z M449.306,491.102H62.694V20.898h386.612V491.102
				z"/>
			<path d="M256,361.806c86.424,0,156.735-70.311,156.735-156.735S342.424,48.337,256,48.337S99.265,118.648,99.265,205.072
				S169.576,361.806,256,361.806z M256,69.235c74.9,0,135.837,60.936,135.837,135.837S330.9,340.908,256,340.908
				s-135.837-60.936-135.837-135.837S181.1,69.235,256,69.235z"/>
			<path d="M256,310.94c57.616,0,104.49-46.874,104.49-104.49c0-39.95-22.241-75.821-58.043-93.615
				c-5.167-2.568-11.44-0.461-14.008,4.706c-2.568,5.168-0.461,11.44,4.706,14.008c28.649,14.239,46.447,42.939,46.447,74.9
				c0,46.093-37.499,83.592-83.592,83.592s-83.592-37.499-83.592-83.592c0-31.961,17.798-60.662,46.447-74.9
				c5.168-2.568,7.275-8.84,4.706-14.008c-2.568-5.168-8.839-7.276-14.008-4.706c-35.802,17.794-58.043,53.665-58.043,93.615
				C151.51,264.066,198.384,310.94,256,310.94z"/>
			<path d="M256,236.239c5.771,0,10.449-4.678,10.449-10.449v-68.963c0-5.771-4.678-10.449-10.449-10.449
				c-5.771,0-10.449,4.678-10.449,10.449v68.963C245.551,231.561,250.229,236.239,256,236.239z"/>
			<path d="M256,120.255c5.771,0,10.449-4.678,10.449-10.449v-0.522c0-5.771-4.678-10.449-10.449-10.449
				c-5.771,0-10.449,4.678-10.449,10.449v0.522C245.551,115.577,250.229,120.255,256,120.255z"/>
			<path d="M122.775,458.618c18.725,0,33.959-15.235,33.959-33.959S141.5,390.7,122.775,390.7s-33.959,15.235-33.959,33.959
				S104.051,458.618,122.775,458.618z M122.775,411.598c7.203,0,13.061,5.859,13.061,13.061c0,7.202-5.859,13.061-13.061,13.061
				c-7.202,0-13.061-5.859-13.061-13.061C109.714,417.457,115.573,411.598,122.775,411.598z"/>
			<path d="M211.592,390.7c-18.725,0-33.959,15.235-33.959,33.959s15.235,33.959,33.959,33.959
				c18.725,0,33.959-15.235,33.959-33.959S230.316,390.7,211.592,390.7z M211.592,437.72c-7.203,0-13.061-5.859-13.061-13.061
				c0-7.203,5.859-13.061,13.061-13.061c7.202,0,13.061,5.859,13.061,13.061C224.653,431.862,218.794,437.72,211.592,437.72z"/>
			<path d="M300.408,390.7c-18.725,0-33.959,15.235-33.959,33.959s15.235,33.959,33.959,33.959
				c18.725,0,33.959-15.235,33.959-33.959S319.133,390.7,300.408,390.7z M300.408,437.72c-7.202,0-13.061-5.859-13.061-13.061
				c0-7.203,5.859-13.061,13.061-13.061c7.203,0,13.061,5.859,13.061,13.061C313.469,431.862,307.611,437.72,300.408,437.72z"/>
			<path d="M355.265,424.659c0,18.725,15.235,33.959,33.959,33.959s33.959-15.235,33.959-33.959S407.949,390.7,389.224,390.7
				S355.265,405.933,355.265,424.659z M402.286,424.659c0,7.202-5.859,13.061-13.061,13.061s-13.061-5.859-13.061-13.061
				c0-7.203,5.859-13.061,13.061-13.061S402.286,417.457,402.286,424.659z"/>
		</g>
	</g>
</g>
</svg>